# xmcd
#
# Track frame offsets:
#	150
#	23847
#	45525
#	65700
#	84592
#	103247
#	121517
#	149327
#	168717
#	183020
#	210492
#	228460
#	249142
#	260270
#
# Disc length: 3705
#
# Revision: 0
# Processed by: cddbd v1.5.1PL0 Copyright (c) Steve Scherf et al.
# Submitted via: Broken Cross Disk Manager 3.48.2046
#
DISCID=b70e770e
DTITLE=Elba Ramalho-Zé Ramalho-Geraldo Azevedo-Alceu Valença - O Melhor dos Encontros
DYEAR=1900
DGENRE=
TTITLE0=Admirável Gado Novo - Zé Ramalho
TTITLE1=Chão de Giz - Zé e Elba Ramalho
TTITLE2=Taxi Lunar - Zé, Elba e Geraldo
TTITLE3=Caravana - Zé, Elba e Geraldo
TTITLE4=Coração Bobo - Zé e Alceu
TTITLE5=Pelas Ruas Que Andei - Alceu Valença
TTITLE6=Pot-Pourri - Asa Branca - A Volta da Asa Branca - Zé, Elba, Geraldo e Alceu
TTITLE7=A Terceira Lâmina - Zé Ramalho
TTITLE8=O Trem das Sete - Zé Ramalho
TTITLE9=Eternas Ondas - Zé, Elba e Geraldo
TTITLE10=Banquete dos Signos - Zé, Elba e Geraldo
TTITLE11=Disparada - Zé, Elba e Geraldo
TTITLE12=Bicho de Sete Cabeças II - Zé, Elba e Geraldo
TTITLE13=Pot-Pourri - Banho de Cheiro - Frevo Mulher - Zé, Elba Geraldo e Alceu
EXTD=
EXTT0=
EXTT1=
EXTT2=
EXTT3=
EXTT4=
EXTT5=
EXTT6=
EXTT7=
EXTT8=
EXTT9=
EXTT10=
EXTT11=
EXTT12=
EXTT13=
PLAYORDER=
